# xmcd
# 
# Track frame offsets:
#     183
#     22458
#     41733
#     72008
#     83720
#     102958
#     118070
#     131945
#     146795
#     165245
# 
# Disc length: 2515
# 
# Revision: 5
# Processed by: cddbd v1.5.2PL0 Copyright (c) Steve Scherf et al.
# Submitted via: BonkEnc v1.0.15
# 
DISCID=8f09d10a
DTITLE=Various Artist - Génération Jazz
DYEAR=1992
DGENRE=Jazz
TTITLE0=Louis Armstrong - Nobody knows the trouble I've seen
TTITLE1=Blossom Dearie - Manhattan
TTITLE2=Duke Ellington and His Orchestra and Ella Fitzgerald - Take the "A" train
TTITLE3=Dinah Washington - It's magic
TTITLE4=Ella Fitzgerald and Louis Armstrong - Let's call the whole thing off
TTITLE5=Django Reinhardt - Nuages
TTITLE6=Sarah Vaughan - Misty
TTITLE7=Eleck Bacsik - Take five
TTITLE8=Chet Baker - born to be blue
TTITLE9=Stan Getz and Joao and Astrud Gilberto - The girl from Ipanema
EXTD=YEAR: 1992
EXTT0=
EXTT1=
EXTT2=
EXTT3=
EXTT4=
EXTT5=
EXTT6=
EXTT7=
EXTT8=
EXTT9=
PLAYORDER=
